<svg width="64" height="53" viewBox="0 0 64 53" fill="none" xmlns="http://www.w3.org/2000/svg">
<path d="M54.378 29.4035C54.1319 39.4917 33.5863 43.9822 28.2346 42.5674L26.8813 44.5359C31.7614 45.0485 43.5639 45.1756 51.7329 41.5832C61.9441 37.0927 64.2817 30.7568 63.9741 26.6354C63.6665 22.514 60.0987 18.6386 51.4253 17.0393C44.4866 15.7598 42.7929 12.7743 42.8134 11.4415C43.3547 3.61697 55.2597 3.6703 61.1445 4.67504L63.728 0C62.8422 0.54132 58.7659 0.594621 56.8385 0.553606C40.5989 -1.67192e-05 35.4933 6.15136 34.8166 11.0109C34.2475 15.098 35.6163 20.8531 45.2124 22.9446C52.8893 24.6177 54.5215 27.9477 54.378 29.4035Z" fill="white"/>
<path d="M23.8673 6.15123V26.0816L16.3011 36.9792V6.27426H7.38164C6.59426 6.27426 5.98733 7.05343 5.78228 7.44301H0V0.676514L40.722 0.799541C35.4319 3.01403 34.5092 5.53609 33.9555 6.15123H23.8673Z" fill="white"/>
<path d="M33.5251 17.8389L25.8359 29.0959L31.4337 32.8482L38.3232 22.8215C35.715 21.5912 34.0378 18.9871 33.5251 17.8389Z" fill="white"/>
<rect x="24.8472" y="29.2805" width="7.65635" height="4.25817" rx="2.12909" transform="rotate(34.2239 24.8472 29.2805)" fill="white"/>
<rect x="21.9922" y="33.3228" width="7.94024" height="1.46715" rx="0.733573" transform="rotate(34.2239 21.9922 33.3228)" fill="white"/>
<path d="M27.0071 38.9882L24.706 37.3964L21.8369 41.6982C22.2545 42.2617 22.1529 43.9822 20.2536 43.6303L13.9635 52.1596C15.623 50.4754 20.1131 47.0235 24.7972 46.6896C24.993 42.5101 26.352 39.8139 27.0071 38.9882Z" fill="white"/>
<path d="M21.4383 35.1386L23.7308 36.7427L20.6947 40.9283C20.0212 40.7327 18.4433 41.426 19.4335 43.0845L13.6229 51.9474C14.6252 49.8059 16.3008 44.3959 14.9855 39.8879C18.8363 38.2513 20.8919 36.0398 21.4383 35.1386Z" fill="white"/>
</svg>
